<?xml version="1.0" standalone="no"?>
<!DOCTYPE svg PUBLIC "-//W3C//DTD SVG 1.1//EN" "http://www.w3.org/Graphics/SVG/1.1/DTD/svg11.dtd" >
<svg xmlns="http://www.w3.org/2000/svg">
<metadata>Generated by IcoMoon</metadata>
<defs>
<font id="icomoon" horiz-adv-x="1024">
<font-face units-per-em="1024" ascent="960" descent="-64" />
<missing-glyph horiz-adv-x="1024" />
<glyph unicode="&#x20;" horiz-adv-x="512" d="" />
<glyph unicode="&#xe900;" glyph-name="attach" d="M737.536 894.784c-16.768 13.12-13.84 13.12-27.728 13.12v-224.384h236.272c0 13.136-13.872 13.136-208.544 211.264zM660.32 670.736v236.8h-359.616c-1.362 0.2-2.935 0.314-4.535 0.314-18.186 0-32.928-14.742-32.928-32.928 0-1.748 0.136-3.465 0.399-5.14l-0.024 0.186v-266.048l70.992 84.064 379.008-439.92h-194.016v-137.6h376.112c26.681 1.911 47.822 23.207 49.48 49.783l0.008 0.153v473.184h-247.84c-1.357-0.199-2.924-0.312-4.518-0.312-18.141 0-32.848 14.707-32.848 32.848 0 1.628 0.118 3.229 0.347 4.794l-0.021-0.178zM334.976 608.208l-260.288-308.304h132.8v-241.216h260.272v241.184h132.8zM207.536 32.752h260.24v-51.808h-260.24v51.808z" />
<glyph unicode="&#xe901;" glyph-name="build" d="M152.8 54.080v44.8q0 390.048 0 780.032c0 41.792 0 41.792 42.336 41.856h72.928c-5.44 42.272 21.568 39.328 49.696 39.2q193.408-1.152 386.816 0c26.432 0.192 46.336-1.984 36.864-39.232 29.92 0 56.448-1.664 82.624 0.448 27.84 2.24 36.928-7.264 36.736-35.776-1.248-154.496-0.608-309.024-0.608-463.52v-364.608c51.008 4.896 39.936-31.040 39.872-59.36 0-72.928 5.536-61.024-60.96-61.152-230.24-0.448-460.48 0.32-690.656-0.768-28.288 0-39.264 8.32-36.032 36.224 0.504 6.224 0.792 13.474 0.792 20.791 0 6.195-0.206 12.343-0.612 18.436l0.044-0.827c-0.576 25.6-4.192 53.312 40.16 43.456zM780.192 848.096h-547.2v-782.912h332.128v154.656c0 79.552 0 77.952 78.816 80 33.024 0.832 42.208-9.888 41.024-41.856-2.304-63.616-0.64-127.328-0.64-192.832h96zM384.64 212c-59.936 0.416-55.904-7.392-55.584 57.6 0.288 67.2-8.736 60.8 61.824 61.088 64.8 0.192 57.248 3.552 57.184-56.128-0.096-72.384 7.2-61.696-63.424-62.56zM390.368 723.52c63.584-0.768 57.856 8.704 57.6-57.888s8.064-59.296-59.68-59.264c-66.816 0-59.168-7.648-59.296 59.648s-5.44 56.48 61.376 57.504zM565.12 667.104c0.288 64.672-5.216 56.512 56.032 56.192 70.144-0.352 62.56 11.488 63.168-61.952-0.186-2.394-0.292-5.185-0.292-8s0.106-5.606 0.315-8.368l-0.022 0.368c4.32-30.24-7.488-44-38.72-39.328-3.238 0.255-7.011 0.4-10.817 0.4-2.949 0-5.878-0.087-8.783-0.259l0.401 0.019c-69.952 0.672-60.544-7.424-61.28 60.928zM389.024 409.408c-66.016 1.024-59.936-9.92-59.968 58.88 0 66.048-6.4 58.176 57.6 58.048 69.472 0 61.344 8.928 61.568-60.352 0-65.824 5.024-55.808-59.2-56.576zM624.256 409.408c-65.92 0.832-59.040-9.056-59.040 59.744 0 64.736-7.008 57.344 58.272 57.184 68.064 0 60.512 9.344 60.8-61.184 0.096-65.888 4.32-54.72-60.032-55.744z" />
<glyph unicode="&#xe902;" glyph-name="cake" d="M15.515-48.454v60.135c4.499-0.248 8.967-0.776 13.467-0.776h979.473v-59.359zM94.609 70.047v264.867c1.387 0.124 3.001 0.194 4.632 0.194 12.258 0 23.585-3.984 32.757-10.728l-0.154 0.108c10.491-7.992 22.397-15.949 34.781-23.175l1.678-0.904c18.908-10.442 41.451-16.587 65.428-16.587 28.515 0 55 8.69 76.951 23.567l-0.482-0.308c7.947 4.891 14.762 9.76 21.227 15.043l-0.344-0.273c11.648 8.397 26.206 13.429 41.941 13.429 15.583 0 30.014-4.937 41.812-13.331l-0.222 0.15c13.866-11.315 29.746-20.952 46.875-28.219l1.282-0.483c14.848-6.084 32.081-9.615 50.139-9.615 28.339 0 54.646 8.697 76.399 23.568l-0.465-0.3c7.168 4.654 13.963 9.836 20.976 14.708 11.465 8.775 26.005 14.061 41.78 14.061 15.666 0 30.115-5.213 41.706-14l-0.172 0.125c13.988-10.692 29.853-20.24 46.734-27.945l1.547-0.633c14.855-6.086 32.095-9.619 50.16-9.619 28.328 0 54.627 8.687 76.379 23.542l-0.467-0.301c8.812 5.709 17.035 12.070 25.692 17.935 8.947 6.361 20.095 10.169 32.133 10.169 1.566 0 3.118-0.064 4.652-0.191l-0.201 0.013v-264.898zM470.064 411.99c-17.225 14.483-37.742 25.682-60.218 32.311l-1.189 0.301c-10.697 2.914-22.98 4.588-35.653 4.588-29.555 0-56.983-9.105-79.633-24.664l0.478 0.31c-5.971-3.822-11.029-7.459-15.889-11.335l0.374 0.288c-12.128-10.031-27.84-16.116-44.973-16.116-17.236 0-33.033 6.158-45.312 16.394l0.114-0.092c-17.026 15.048-37.984 26.041-61.13 31.257l-0.928 0.176c-10.209 1.924-20.635 2.824-31.96 4.313-0.257 2.55-0.404 5.512-0.404 8.507 0 18.417 5.55 35.538 15.069 49.781l-0.205-0.326c20.566 30.387 54.912 50.097 93.862 50.097 2.184 0 4.353-0.062 6.506-0.184l-0.298 0.014q122.938 0.217 245.908 0h13.281v117.446h88.216v-117.446h12.815c82.29 0 164.456 0 246.932 0 2.22 0.162 4.81 0.255 7.422 0.255 49.517 0 91.263-33.272 104.1-78.68l0.184-0.762c1.529-8.259 2.639-18.080 3.086-28.073l0.017-0.474c-12.039-1.551-22.465-2.389-32.612-4.344-23.050-5.439-43.167-15.698-60.066-29.704l0.242 0.195c-10.54-9.203-23.79-15.557-38.404-17.729l-0.414-0.051c-2.692-0.371-5.802-0.583-8.962-0.583-14.969 0-28.828 4.751-40.152 12.827l0.211-0.143c-9.566 7.364-20.395 14.692-31.66 21.359l-1.51 0.827c-19.187 10.506-42.037 16.685-66.33 16.685-29.816 0-57.459-9.308-80.18-25.177l0.455 0.301c-5.989-4.127-11.822-8.471-17.749-12.66-11.506-8.614-25.946-13.893-41.605-14.179l-0.067-0.001c-15.8 0.323-30.285 5.694-41.975 14.559l0.179-0.13zM474.346 778.789c-18.936 12.342-31.278 33.418-31.278 57.377 0 4.643 0.463 9.177 1.347 13.559l-0.074-0.437c6.687 41.087 31.338 75.33 65.473 94.916l0.65 0.344h3.506c34.898-19.796 59.575-54.146 65.873-94.581l0.095-0.741c1.034-4.347 1.626-9.337 1.626-14.466 0-23.272-12.2-43.695-30.553-55.222l-0.271-0.159c-10.638-7.597-23.859-12.217-38.15-12.411l-0.047-0.001c-14.256 0.236-27.448 4.593-38.493 11.925l0.265-0.165z" />
<glyph unicode="&#xe903;" glyph-name="camera" d="M795.949 689.935h-112.504l-44.017 46.682c-13.072 13.856-31.559 22.483-52.060 22.483-0.042 0-0.084 0-0.125 0h-150.477c-20.632-0.032-39.246-8.643-52.47-22.456l-0.025-0.026-43.671-46.682h-112.504c-0.213 0.002-0.465 0.004-0.717 0.004-38.413 0-69.628-30.818-70.269-69.079l-0.001-0.060v-414.675c0.684-38.279 31.876-69.049 70.254-69.049 0.258 0 0.515 0.001 0.773 0.004h567.844c0.218-0.002 0.475-0.004 0.733-0.004 38.384 0 69.579 30.778 70.253 69l0.001 0.063v414.645c-0.633 38.327-31.852 69.154-70.271 69.154-0.263 0-0.525-0.001-0.787-0.004h0.040zM512 240.715c-93.435 2.587-168.192 78.947-168.192 172.768 0 95.451 77.379 172.83 172.83 172.83s172.829-77.377 172.83-172.828v0c-1.375-95.719-79.292-172.784-175.207-172.784-0.795 0-1.589 0.005-2.381 0.016l0.12-0.001z" />
<glyph unicode="&#xe904;" glyph-name="clip" d="M785.315 478.487l-303.88-303.787c-30.428-31.374-72.975-50.846-120.070-50.846-38.923 0-74.739 13.301-103.152 35.605l0.362-0.274c-36.429 29.983-59.48 75.077-59.48 125.556 0 44.903 18.24 85.546 47.715 114.924l0.005 0.004 354.925 354.8c19.243 20.105 46.294 32.601 76.264 32.601 24.017 0 46.16-8.025 63.894-21.541l-0.257 0.188c23.020-18.769 37.603-47.128 37.603-78.893 0-28.095-11.408-53.525-29.843-71.912l-301.554-301.508c-7.457-8.147-18.138-13.237-30.009-13.237-22.442 0-40.634 18.193-40.634 40.634 0 11.87 5.090 22.552 13.206 29.981l0.031 0.028 251.345 251.345c5.797 5.552 9.4 13.354 9.4 21.998 0 16.812-13.629 30.441-30.441 30.441-8.644 0-16.447-3.603-21.988-9.389l-0.010-0.011-247.42-247.296c-20.066-19.238-32.536-46.263-32.536-76.201 0-24.025 8.030-46.174 21.553-63.909l-0.188 0.257c18.772-23.006 47.124-37.579 78.881-37.579 28.084 0 53.507 11.397 71.894 29.819l296.667 296.698c31.38 30.424 50.857 72.971 50.857 120.067 0 38.926-13.305 74.744-35.615 103.154l0.274-0.362c-30.001 36.35-75.063 59.342-125.494 59.342-44.895 0-85.534-18.221-114.926-47.672l-352.337-352.197c-82.479-82.479-95.961-216.56-21.597-306.455 41.324-49.966 103.33-81.563 172.716-81.563 61.767 0 117.686 25.039 158.16 65.52l308.752 308.752c6.285 5.604 10.223 13.724 10.223 22.764 0 16.821-13.636 30.456-30.456 30.456-9.079 0-17.229-3.972-22.809-10.273l-0.028-0.032z" />
<glyph unicode="&#xe905;" glyph-name="clock" d="M581.616 670.848c15.408 15.408 10 10.096 25.44 25.6-52.601 30.323-115.683 48.212-182.943 48.212-205.008 0-371.2-166.192-371.2-371.2s166.192-371.2 371.2-371.2c205.008 0 371.2 166.192 371.2 371.2 0 51.517-10.495 100.583-29.463 145.176l0.918-2.428c-8.64-8.608-17.264-17.264-25.952-25.84 11.556-30.615 18.791-65.998 20.002-102.904l0.014-0.536c-8.512 0-16.576 0.128-24.592 0-0.046 0-0.101 0.001-0.156 0.001-9.208 0-16.672-7.464-16.672-16.672 0-5.554 2.716-10.474 6.892-13.503l0.048-0.033c3.237-1.95 7.096-3.202 11.226-3.453l0.070-0.003c7.264-0.528 14.672-0.16 22.768-0.16-2.466-50.512-15.956-97.357-38.094-138.893l0.862 1.773c-7.392 4.24-14.272 8.672-21.6 12.224-3.406 1.802-7.444 2.86-11.73 2.86-0.269 0-0.538-0.004-0.805-0.012l0.039 0.001c-7.266-0.844-13.002-6.449-14.038-13.578l-0.010-0.086c-0.182-0.919-0.286-1.976-0.286-3.058 0-6.158 3.377-11.526 8.38-14.355l0.082-0.043c7.28-4.464 14.736-8.688 22.096-12.976-26.57-40.432-60.658-73.713-100.533-98.579l-1.371-0.797c-4.512 7.584-8.864 15.344-13.6 22.912-2.777 4.98-8.012 8.293-14.022 8.293-1.079 0-2.133-0.107-3.152-0.31l0.102 0.017c-6.728-0.877-12.112-5.76-13.72-12.144l-0.024-0.112c-0.376-1.347-0.592-2.893-0.592-4.49 0-3.593 1.094-6.931 2.967-9.699l-0.039 0.061c4.064-6.96 8.080-13.952 12.544-21.648-39.801-20.151-86.522-32.715-135.984-34.558l-0.608-0.018c0 8.384 0 16.24 0 24.080 0.006 0.159 0.009 0.346 0.009 0.534 0 6.507-3.952 12.091-9.586 14.484l-0.103 0.039c-2.122 1.093-4.632 1.734-7.291 1.734-4.032 0-7.72-1.474-10.554-3.912l0.021 0.018c-3.934-3.167-6.43-7.982-6.43-13.38 0-0.359 0.011-0.715 0.033-1.068l-0.002 0.048v-22.4c-50.368 2.85-96.983 16.371-138.449 38.321l1.825-0.881c3.776 6.768 7.376 12.96 10.88 19.2 1.787 2.646 2.852 5.908 2.852 9.418 0 9.376-7.6 16.976-16.976 16.976-6.74 0-12.563-3.928-15.304-9.621l-0.044-0.102c-3.616-6.032-7.072-12.112-10.88-18.688-39.833 26.259-72.834 59.51-98.024 98.299l-0.792 1.301c7.072 4.128 13.696 8 20.4 11.904 5.861 2.718 9.852 8.551 9.852 15.317 0 3.051-0.812 5.913-2.232 8.381l0.043-0.082c-2.971 5.252-8.519 8.74-14.882 8.74-3.646 0-7.025-1.145-9.796-3.096l0.054 0.036c-6.496-3.824-13.072-7.52-20.416-11.76-20.145 38.741-32.896 84.265-35.172 132.53l-0.028 0.734c8.144 0 15.712-0.128 23.2 0 0.153-0.005 0.333-0.008 0.513-0.008 9.275 0 16.807 7.467 16.911 16.718v0.010c0.014 0.253 0.022 0.55 0.022 0.848 0 8.96-7.264 16.224-16.224 16.224-0.019 0-0.038 0-0.057 0h0.003c-8 0.192-16.080 0-24.8 0 1.665 50.429 14.33 97.529 35.654 139.487l-0.87-1.887c7.152-4.080 13.76-8 20.528-11.648 2.453-1.482 5.417-2.359 8.584-2.359 8.525 0 15.567 6.35 16.654 14.578l0.009 0.085c0.093 0.668 0.145 1.441 0.145 2.225 0 6.437-3.556 12.043-8.81 14.962l-0.087 0.045c-3.296 2-6.72 3.808-10.064 5.776s-6.4 3.616-10.208 5.856c25.999 40.515 59.050 74.153 97.733 100.027l1.227 0.773c3.872-6.64 7.456-13.008 11.2-19.28 2.878-5.262 8.374-8.77 14.69-8.77 1.483 0 2.921 0.194 4.29 0.557l-0.116-0.026c6.88 1.5 12.049 7.272 12.62 14.343l0.004 0.057c0.007 0.215 0.011 0.468 0.011 0.721 0 3.933-0.969 7.64-2.681 10.895l0.062-0.128c-3.072 6.256-7.008 12.144-10.912 18.704 39.969 21.373 86.993 35.097 136.926 37.959l0.898 0.041c0-8.384-0.208-16.080 0-23.792 0-0.043-0.001-0.094-0.001-0.145 0-9.331 7.565-16.896 16.896-16.896s16.896 7.565 16.896 16.896c0 0.253-0.006 0.506-0.017 0.756l0.001-0.036c0.096 5.984 0 11.952 0 17.952 0 1.68 0.208 3.408 0.288 5.024 26.992 3.696 108.224-17.056 136.912-34.944zM969.088 783.456c-0.351-9.469-4.532-17.898-11.030-23.832l-0.026-0.024q-147.376-147.376-294.864-294.656c-3.181-2.968-7.187-5.091-11.637-5.99l-0.155-0.026c-38.912-8-77.856-15.6-116.8-23.184-13.072-2.544-20.704 5.152-18.16 18.192 7.584 38.8 15.104 77.6 23.12 116.256 1.209 5.331 3.807 9.933 7.394 13.554l-0.002-0.002q145.712 146.224 291.824 292.064c6.545 7.913 16.365 12.916 27.354 12.916 10.872 0 20.6-4.898 27.098-12.607l0.044-0.053c21.84-21.6 43.488-43.392 65.184-65.088 6.61-6.555 10.703-15.64 10.703-25.68 0-0.647-0.017-1.29-0.051-1.929l0.004 0.089zM602.048 543.024c82.224 82.192 164.256 164.24 245.216 245.168l-27.76 28.576-245.584-245.584zM869.696 767.648q-123.2-123.2-245.568-245.632c9.056-9.328 18.672-19.2 27.296-27.952q122.896 122.976 246 246.096c-8.976 8.944-18.448 18.4-27.728 27.488zM918.528 759.040c6.816 6.784 13.888 13.616 20.8 20.8 1.553 1.419 2.523 3.452 2.523 5.712 0 2.38-1.076 4.508-2.767 5.926l-0.012 0.010c-2.512 2.576-5.104 5.056-7.632 7.616q-29.136 29.2-58.304 58.32c-4.496 4.496-8.496 5.168-12.384 1.424-7.248-6.864-14.128-14.128-20.8-20.896 26.224-26.384 52.32-52.56 78.576-78.848zM561.856 541.872c-4.912-24.864-9.856-49.936-14.896-75.648 25.76 5.104 50.832 10.048 75.44 14.896-20.144 20.304-40.256 40.448-60.544 60.816zM571.232 299.040q-62.576 39.712-125.040 79.6c-1.92 1.264-3.872 2.48-5.84 3.712v79.984q0 74.080 0.096 148.224c0.016 0.28 0.026 0.606 0.026 0.935 0 6.535-3.706 12.204-9.132 15.020l-0.094 0.044c-2.251 1.297-4.951 2.063-7.829 2.063-3.455 0-6.652-1.103-9.259-2.975l0.047 0.032c-4.698-3.082-7.758-8.324-7.758-14.282 0-0.357 0.011-0.711 0.033-1.063l-0.002 0.048q0.128-65.888 0.096-131.856 0-52.496-0.16-104.992c-0.009-0.205-0.014-0.444-0.014-0.686 0-6.77 4-12.605 9.766-15.271l0.104-0.043q12.704-8.096 25.392-16.112 55.648-35.472 111.168-70.944c2.75-2.019 6.202-3.231 9.937-3.231 2.565 0 4.997 0.572 7.175 1.595l-0.103-0.044c5.621 2.277 9.572 7.572 9.855 13.822l0.001 0.034c0.057 0.519 0.089 1.12 0.089 1.729 0 6.253-3.41 11.709-8.471 14.612l-0.082 0.043z" />
<glyph unicode="&#xe906;" glyph-name="coin-euro" d="M898.016 397.536l-0.736-1.44c2.251 15.51 3.596 33.512 3.711 51.804l0.001 0.132c0.002 0.39 0.003 0.851 0.003 1.313 0 17.344-1.631 34.306-4.749 50.742l0.266-1.687 0.768-0.672 126.72 98.048-125.984 215.776-148.928-59.264v-0.736c-25.698 19.593-54.959 36.751-86.205 50.172l-2.691 1.028h0.704l-22.4 157.216h-252.576l-22.976-157.216h0.704c-33.937-14.449-63.198-31.607-89.911-51.941l1.015 0.741v0.736l-148.896 59.264-126.016-215.776 126.016-98.048 0.672 0.672c-2.281-15.088-3.616-32.544-3.68-50.3v-0.068c0.121-18.43 1.455-36.432 3.925-54.071l-0.245 2.135-0.672 1.44-108.96-84.832c-9.6-7.296-17.056-13.248-17.056-13.248l126.016-214.976 149.696 58.528-1.568 2.176c25.836-20.309 55.374-37.73 87.101-50.949l2.499-0.923h-0.704l22.976-157.312h251.872s1.536 9.6 3.008 21.92l19.936 135.392h-0.704c34.226 14.134 63.765 31.555 90.414 52.488l-0.814-0.616-1.568-2.176 149.728-58.528 125.984 214.976c-5.068 4.411-10.627 8.76-16.406 12.816l-0.65 0.432zM550.56 530.72v-54.656h-176.992c-0.992-11.84-1.536-21.408-1.536-28.448s0.544-17.696 1.536-32h176.992v-53.792h-163.936c11.205-30.603 30.751-55.927 55.885-73.953l0.467-0.319c23.831-16.792 53.465-26.838 85.446-26.838 0.898 0 1.794 0.008 2.688 0.024l-0.134-0.002c1.432-0.045 3.115-0.070 4.805-0.070 33.54 0 64.736 10.035 90.75 27.266l-0.611-0.38c26.133 18.031 46.301 43.020 58.021 72.303l0.379 1.073h121.44c-13.51-61.447-47.034-113.515-93.257-150.309l-0.535-0.411c-46.203-34.72-104.529-55.601-167.732-55.601-3.808 0-7.599 0.076-11.37 0.226l0.542-0.017c-2.482-0.081-5.4-0.128-8.329-0.128-62.638 0-120.331 21.173-166.312 56.753l0.625-0.465c-46.934 37.348-80.778 89.363-94.654 149.042l-0.354 1.806h-70.144v53.984h62.016c-1.152 14.176-1.696 24.672-1.696 32 0 12.8 0.256 22.4 0.8 28.448h-61.12v54.464h69.248c13.487 62.52 47.327 115.576 94.106 153.197l0.518 0.403c45.791 35.428 104.028 56.79 167.254 56.79 2.828 0 5.646-0.043 8.454-0.128l-0.412 0.010c3.166 0.128 6.882 0.2 10.616 0.2 63.281 0 121.68-20.902 168.67-56.178l-0.726 0.522c46.731-37.264 80.245-89.352 93.467-149.068l0.325-1.748h-121.44c-12.081 30.365-32.253 55.359-57.867 73.029l-0.533 0.347c-25.462 16.907-56.736 26.976-90.362 26.976-1.611 0-3.217-0.023-4.818-0.069l0.235 0.005c-0.827 0.017-1.802 0.026-2.779 0.026-32.269 0-62.143-10.259-86.537-27.693l0.452 0.307c-25.889-19.105-45.482-45.393-55.958-75.916l-0.33-1.108z" />
<glyph unicode="&#xe907;" glyph-name="cross" d="M750.933 639.147l-47.787 47.787-191.147-191.147-191.147 191.147-47.787-47.787 191.147-191.147-191.147-191.147 47.787-47.787 191.147 191.147 191.147-191.147 47.787 47.787-191.147 191.147z" />
<glyph unicode="&#xe908;" glyph-name="holiday" d="M973.904 106.032c-5.679-10.243-16.427-17.062-28.768-17.062-1.705 0-3.38 0.13-5.014 0.381l0.183-0.023c-34.118 1.557-65.951 9.782-94.738 23.393l1.506-0.641c-21.217 9.828-46.049 15.561-72.22 15.561-26.267 0-51.184-5.774-73.553-16.123l1.086 0.451c-30.041-14.32-65.286-22.683-102.485-22.683-16.476 0-32.569 1.641-48.125 4.768l1.554-0.261c-21.289 4.96-39.788 11.288-57.409 19.218l1.953-0.786c-21.284 9.613-46.144 15.215-72.313 15.215-26.543 0-51.74-5.763-74.409-16.105l1.122 0.459c-29.908-14.239-64.993-22.554-102.020-22.554-19.504 0-38.469 2.307-56.638 6.664l1.649-0.334c-20.002 5.55-36.911 11.751-53.18 19.117l2.284-0.925c-16.745 7.317-36.206 11.855-56.648 12.506l-0.248 0.006c-5.163 0.095-10.14 0.539-15.008 1.312l0.608-0.080c-12.509 1.016-22.275 11.418-22.275 24.101 0 0.336 0.007 0.67 0.020 1.002l-0.002-0.048c0.054 13.081 10.671 23.665 23.76 23.665 0.315 0 0.629-0.006 0.941-0.018l-0.045 0.001c20.944-1.6 41.744-5.040 62.592-7.696 1.408-0.176 2.832-0.56 5.52-1.072-17.696 106.528 11.424 202.624 62.4 294.912-12.489 5.521-27.017 8.917-42.289 9.341l-0.159 0.003c-2.053 0.134-4.451 0.211-6.867 0.211-24.27 0-46.736-7.728-65.070-20.857l0.338 0.23c-4.759-3.675-10.417-6.445-16.575-7.938l-0.305-0.062c-1.242-0.219-2.671-0.345-4.13-0.345-11.276 0-20.802 7.491-23.873 17.768l-0.045 0.176v12.704c6.045 11.278 15.515 20.055 27.001 25.076l0.359 0.14c23.954 14.265 52.821 22.697 83.658 22.697 14.886 0 29.313-1.965 43.036-5.65l-1.158 0.265c1.408-0.288 2.832-0.592 6.064-1.312-8.108 16.227-19.884 29.556-34.296 39.275l-0.36 0.229c-19.976 12.863-43.798 21.561-69.403 24.291l-0.709 0.061c-13.233 0.357-23.824 11.17-23.824 24.456 0 1.393 0.116 2.759 0.34 4.088l-0.020-0.144c1.554 11.961 11.678 21.105 23.938 21.105 2.079 0 4.097-0.263 6.021-0.757l-0.167 0.036c45.765-3.959 86.314-23.603 116.835-53.458l-0.035 0.034c16.392-16.835 28.842-37.591 35.808-60.724l0.272-1.052c1.040-3.44 1.952-6.976 2.96-10.384 0.304-0.832 0.912-1.6 0.224-0.432 22.135-2.021 41.747-4.916 61.001-8.796l-3.593 0.604c47.152-13.602 86.503-41.635 114.019-78.934l0.413-0.586c3.054-4.008 4.892-9.086 4.892-14.592 0-7.237-3.176-13.733-8.21-18.169l-0.027-0.023c-4.336-3.917-10.111-6.313-16.445-6.313-6.996 0-13.31 2.923-17.785 7.615l-0.009 0.010c-15.082 15.478-30.913 29.986-47.532 43.566l-1.012 0.802c-12.464 7.916-26.859 15.316-41.926 21.4l-1.818 0.648c-0.768-1.024-1.6-2.080-2.272-3.088 1.872-2.752 3.728-5.488 5.616-8.224 18.394-24.209 30.738-53.95 34.267-86.34l0.069-0.78c0.237-2.645 0.372-5.721 0.372-8.829 0-15.625-3.414-30.452-9.537-43.777l0.269 0.653c-3.707-8.658-12.154-14.613-21.993-14.613-2.901 0-5.681 0.518-8.253 1.466l0.165-0.053c-9.866 2.759-16.982 11.669-16.982 22.241 0 2.58 0.424 5.061 1.205 7.377l-0.048-0.163c14.032 38.832-2.176 69.856-23.824 99.712-4.24 5.856-9.248 11.2-13.952 16.656-0.985 0.988-2.028 1.915-3.126 2.776l-0.074 0.056c-14.299-24.044-27.337-51.919-37.594-81.103l-1.014-3.313c-13.238-34.861-20.903-75.169-20.903-117.268 0-6.499 0.183-12.956 0.543-19.365l-0.040 0.889c2.625-24.037 6.492-45.437 11.702-66.304l-0.71 3.36c1.777-3.783 5.137-6.571 9.204-7.534l0.092-0.018c12.248-2.746 26.316-4.319 40.75-4.319 24.925 0 48.754 4.691 70.653 13.238l-1.323-0.455c18.948 8.218 41.52 15.64 64.859 21.061l2.757 0.539c12.315 2.45 26.473 3.852 40.959 3.852 29.371 0 57.395-5.764 83.004-16.222l-1.467 0.53c16.186-7.16 35.53-13.741 55.522-18.676l2.51-0.524c10.48-2.183 22.522-3.432 34.857-3.432 23.874 0 46.654 4.681 67.473 13.175l-1.194-0.431c19.265 8.406 42.138 15.915 65.81 21.324l2.686 0.516c12.129 2.381 26.076 3.744 40.341 3.744 29.584 0 57.799-5.861 83.548-16.484l-1.457 0.532c19.2-7.552 39.024-13.792 58.88-19.536 6.384-1.679 13.714-2.643 21.269-2.643 1.675 0 3.34 0.047 4.992 0.141l-0.229-0.010c0.868 0.092 1.876 0.144 2.896 0.144 12.304 0 22.826-7.636 27.083-18.427l0.069-0.197zM679.84 418.688c-63.402 0.372-114.656 51.856-114.656 115.31 0 63.685 51.627 115.312 115.312 115.312 63.679 0 115.302-51.617 115.312-115.293v-0.001c0-0.039 0-0.085 0-0.131 0-63.623-51.577-115.2-115.2-115.2-0.27 0-0.54 0.001-0.809 0.003h0.041zM745.936 534.064c-0.202 36.182-29.283 65.504-65.352 66.095l-0.056 0.001c-36.477 0-66.048-29.571-66.048-66.048s29.571-66.048 66.048-66.048v0c36.138 0.477 65.267 29.813 65.408 65.986v0.014zM813.104 640.72c-9.763 0.24-18.171 5.812-22.444 13.906l-0.068 0.142c-2.149 3.277-3.428 7.292-3.428 11.606 0 5.592 2.149 10.681 5.665 14.489l-0.013-0.014c13.904 14.976 28.272 29.52 43.36 43.312 4.034 3.085 9.149 4.944 14.698 4.944 13.432 0 24.32-10.888 24.32-24.32 0-5.601-1.894-10.76-5.076-14.872l0.042 0.056c-13.824-15.088-28.512-29.344-43.408-43.392-3.916-2.571-8.471-4.586-13.344-5.792l-0.304-0.064zM813.696 428.096c6.316-2.757 11.757-5.97 16.747-9.747l-0.203 0.147c12.8-11.792 25.008-24.336 37.152-36.8 4.961-4.529 8.061-11.024 8.061-18.242 0-13.626-11.046-24.672-24.672-24.672-6.872 0-13.088 2.81-17.562 7.343l-0.003 0.003q-19.952 19.024-38.88 39.008c-4.321 4.15-7.005 9.976-7.005 16.429 0 4.079 1.073 7.908 2.952 11.22l-0.059-0.113c4.541 8.721 13.233 14.73 23.384 15.419l0.088 0.005zM483.296 364.992c3.068 6.56 6.504 12.201 10.473 17.415l-0.169-0.231c11.424 12.432 23.584 24.208 35.76 35.952 4.539 5.074 11.106 8.253 18.415 8.253 13.626 0 24.672-11.046 24.672-24.672 0-7.258-3.134-13.783-8.122-18.298l-0.021-0.019q-18.608-19.104-37.792-37.712c-4.262-4.291-10.165-6.947-16.689-6.947-3.693 0-7.188 0.851-10.298 2.368l0.139-0.061c-9.246 4.37-15.677 13.335-16.364 23.868l-0.004 0.084zM510.288 730.768c6.673-2.766 12.425-6.040 17.703-9.922l-0.231 0.162c12.656-11.6 24.64-24 36.592-36.352 5.093-4.545 8.285-11.129 8.285-18.458 0-13.644-11.060-24.704-24.704-24.704-7.13 0-13.554 3.020-18.063 7.851l-0.013 0.014c-12.8 12.288-25.344 24.944-37.728 37.776-4.549 4.311-7.38 10.396-7.38 17.142 0 3.79 0.894 7.372 2.482 10.546l-0.062-0.136c4.212 8.985 12.847 15.27 23.023 16.074l0.097 0.006zM466.192 509.68c-9.6 0-19.2-0.352-28.88 0.096-12.739 0.908-22.73 11.466-22.73 24.358 0 13.122 10.352 23.827 23.335 24.393l0.051 0.002q28 0.432 56 0c13.279-0.277 23.938-11.107 23.938-24.427 0-13.235-10.524-24.013-23.661-24.42l-0.037-0.001c-9.312-0.304-18.672 0-27.952 0zM655.376 320c0 8.976-0.16 18.032 0 27.072 0.138 13.285 10.573 24.088 23.695 24.813l0.065 0.003c0.396 0.023 0.858 0.037 1.324 0.037 12.877 0 23.365-10.23 23.779-23.007l0.001-0.038q1.12-28.8 0-57.712c-0.431-12.775-10.891-22.967-23.731-22.967-0.477 0-0.951 0.014-1.422 0.042l0.065-0.003c-13.217 0.453-23.76 11.276-23.76 24.562 0 0.033 0 0.066 0 0.099v-0.005c-0.176 9.056-0.016 18.064-0.016 27.104zM655.376 748.352c0 9.024-0.176 18.032 0.112 27.072 0 0.019 0 0.042 0 0.065 0 13.287 10.726 24.069 23.991 24.159h0.009c0.498 0.038 1.079 0.060 1.665 0.060 12.768 0 23.134-10.286 23.263-23.023v-0.012c0.72-18.912 0.72-37.888 0-56.8-0.080-13.035-10.665-23.572-23.712-23.572-0.631 0-1.256 0.025-1.874 0.073l0.082-0.005c-13.138 0.716-23.52 11.544-23.52 24.797 0 0.040 0 0.081 0 0.121v-0.006c-0.176 9.008-0.016 18.032-0.016 27.072zM894.24 509.632c-9.312 0-18.64-0.256-27.952 0-0.037 0-0.080 0-0.123 0-13.493 0-24.432 10.939-24.432 24.432s10.939 24.432 24.432 24.432c0.308 0 0.614-0.006 0.919-0.017l-0.044 0.001q27.088 0.32 54.112 0c0.021 0 0.047 0 0.072 0 13.502 0 24.448-10.946 24.448-24.448 0-13.477-10.905-24.407-24.372-24.448h-0.004c-9.008-0.256-18.032 0-27.072 0z" />
<glyph unicode="&#xe90a;" glyph-name="logo-go" d="M4.884 450.134c0 83.725 69.088 182.021 174.545 182.021 0.516 0.079 172.154 0.107 172.154 0.107 2.678-0.351 2.385-2.914 1.812-4.117-0.902-2.549-14.579-36.757-17.694-45.113-0.616-1.926-2.39-3.296-4.484-3.296-0.138 0-0.275 0.006-0.411 0.018l0.018-0.001-146.733 0.129c-15.647-1.072-30.221-4.031-44.027-8.666l1.234 0.359c-60.344-23.731-81.634-84.677-81.634-128.609 0-71.472 48.5-129.611 127.119-129.611 79.672 0 114.917 60.108 114.917 100.395l-0.158 69.847c-0.023 0.129-0.037 0.276-0.037 0.427 0 1.392 1.129 2.521 2.521 2.521 0.056 0 0.111-0.002 0.166-0.005h49.775s2.585 0 2.585-2.349v-73.377c-4.669-67.384-53.606-148.695-171.789-148.695-53.449 0-179.88 29.624-179.88 188.015zM389.299 451.208c0 102.092 85.966 185.244 192.512 185.244s192.476-83.152 192.476-185.244-85.93-185.251-192.476-185.251-192.512 83.159-192.512 185.251zM444.681 451.208c0-73.27 61.583-132.304 137.101-132.304s137.094 59.041 137.094 132.304-61.576 132.325-137.094 132.325-137.101-59.034-137.101-132.325zM861.019 282.606h-24.046c-4.297 0-10.634 0.644-12.474 5.514l-16.792 44.669c-2.306 6.144 1.726 10.849 9.008 10.849h174.302c4.246 0 10.627-0.666 12.474-5.542l16.799-44.648c2.277-6.123-1.769-10.813-9.023-10.813z" />
<glyph unicode="&#xe90b;" glyph-name="pause" d="M512 960c-282.77 0-512-229.23-512-512s229.23-512 512-512c282.77 0 512 229.23 512 512v0c-0.105 282.728-229.272 511.895-511.99 512h-0.010zM460.8 243.2h-102.4v409.6h102.4zM665.6 243.2h-102.4v409.6h102.4z" />
<glyph unicode="&#xe90c;" glyph-name="pencil" d="M511.982 882.505c-239.96 0-434.487-194.526-434.487-434.487v0c0-0.005 0-0.012 0-0.018 0-239.96 194.526-434.487 434.487-434.487v0c0.016 0 0.036 0 0.055 0 239.96 0 434.487 194.526 434.487 434.487 0 0.006 0 0.013 0 0.019v-0.001c0 239.96-194.526 434.487-434.487 434.487-0.019 0-0.038 0-0.058 0h0.003zM364.123 228.901h-100.407v100.443l296.155 296.229 100.37-100.571zM737.883 602.734l-49.006-48.969-100.407 100.407 49.006 48.969c4.818 4.748 11.423 7.692 18.716 7.735h0.008c0.127 0.002 0.277 0.003 0.427 0.003 7.255 0 13.82-2.959 18.552-7.736l0.002-0.002 62.702-62.61c4.83-4.839 7.817-11.52 7.817-18.898s-2.987-14.059-7.818-18.899v0z" />
<glyph unicode="&#xe90d;" glyph-name="play" d="M512 960c-282.77 0-512-229.23-512-512s229.23-512 512-512c282.77 0 512 229.23 512 512v0c-0.128 282.718-229.282 511.872-511.988 512h-0.012zM409.6 217.6v460.8l307.2-230.4z" />
<glyph unicode="&#xe90e;" glyph-name="search" d="M629.696 421.584c-25.512 12.294-57.373 25.123-90.091 36.083l-6.213 1.805c-16.404 5.609-29.807 11.195-42.792 17.507l2.232-0.979c-10.476 8.105-17.155 20.68-17.155 34.815 0 1.827 0.112 3.629 0.328 5.397l-0.021-0.212c0.792 1.608 1.649 2.987 2.623 4.273l-0.047-0.065c8.358 14.184 17.404 31.731 25.569 49.763l1.503 3.709c14.598 33.621 23.090 72.78 23.090 113.923 0 12.513-0.785 24.842-2.31 36.941l0.148-1.44c-3.855 40.047-33.171 72.271-71.403 80.469l-0.597 0.107c-12.047 3.063-25.877 4.821-40.118 4.821-8.948 0-17.734-0.694-26.308-2.031l0.953 0.122c-15.879-2.112-30.273-6.536-43.516-12.961l0.844 0.369c-33.872-17.248-45.312-48.784-48.688-84.464-0.551-6.246-0.865-13.513-0.865-20.854 0-18.27 1.947-36.085 5.644-53.249l-0.299 1.655c7.827-46.346 25.031-87.606 49.647-123.368l-0.671 1.032c1.086-1.136 1.942-2.502 2.487-4.016l0.025-0.080c0.016-0.421 0.025-0.916 0.025-1.413 0-13.69-6.801-25.791-17.208-33.109l-0.129-0.086c-8.952-4.356-20.28-9.013-31.895-13.056l-2.377-0.72c-40.935-12.403-75.653-26.281-108.888-42.705l4.12 1.841c-19.812-9.56-35.961-24.019-47.293-41.841l-0.275-0.463q-3.456-6.128-6.544-12.608c24.594-37.953 55.601-69.546 91.797-94.052l1.147-0.732h357.68c37.336 25.094 68.329 56.567 92.132 93.148l0.764 1.252c-12.33 24.53-32.106 43.795-56.325 55.164l-0.731 0.308zM760.176 254.56l-17.040-17.024-60.928 60.72c59.505 65.179 95.954 152.293 95.954 247.92 0 203.382-164.874 368.256-368.256 368.256s-368.256-164.874-368.256-368.256c0-203.382 164.874-368.256 368.256-368.256 96.964 0 185.175 37.475 250.939 98.732l-0.221-0.204 60.8-60.672-16.896-16.992 207.504-203.2 56.096 53.984zM63.936 543.264c0.009 192.197 155.818 348 348.016 348 192.204 0 348.016-155.812 348.016-348.016s-155.812-348.016-348.016-348.016c-0.006 0-0.011 0-0.017 0h0.001c-192.108 0.246-347.773 155.922-348 348.010v0.022z" />
<glyph unicode="&#xe90f;" glyph-name="logout" d="M797.389 196.71v140.186h-510.976v160.819h510.976v140.851l226.611-220.16zM570.624 175.923h104.038v-120.218l-0.020 0.358c0.189-2.664 0.285-5.354 0.285-8.066 0-59.204-45.821-107.706-104.303-111.998l-469.613 0.047c-56.906 6.4-101.137 54.686-101.137 113.302 0 2.236 0.064 4.457 0.177 6.356v784.026l0.016-0.324c-0.146 2.364-0.22 4.748-0.22 7.148 0 58.646 44.236 106.96 101.683 113.445l469.465-0.022c58.136-4.305 103.965-52.837 103.965-112.073 0-2.876-0.108-5.727-0.298-8.173v-160.768h-104.038v160.768h-469.094v-784.026h469.094z" />
<glyph unicode="&#xe910;" glyph-name="send" d="M85.76 64l895.573 384-895.573 384-0.427-298.667 640-85.333-640-85.333z" />
<glyph unicode="&#xe911;" glyph-name="save" d="M796.453 960h-796.453v-1024h1024v796.453zM512 49.81c-94.243 0-170.642 76.399-170.642 170.642s76.399 170.642 170.642 170.642c94.243 0 170.642-76.399 170.642-170.642v0c0-0.065 0-0.142 0-0.22 0-94.122-76.301-170.423-170.423-170.423-0.077 0-0.154 0-0.232 0h0.012zM682.642 619.008h-568.832v227.255h568.832z" />
<glyph unicode="&#xe912;" glyph-name="chat-bubbles" d="M862 318.8c0 8.8 2.4 17.2 6.6 24.4 1.2 2.2 2.8 4.2 4.2 6.2 34.8 52 55.2 114.2 55.2 180.6 0.6 184.4-155 334-347.4 334-167.8 0-307.8-114.2-340.6-265.8-4.8-22.2-7.4-44.8-7.4-68.4 0-184.6 149.6-338.2 342-338.2 30.6 0 71.8 9.2 94.4 15.4s45 14.4 50.8 16.6c5.8 2.2 12.2 3.4 18.6 3.4 7.2 0 14-1.4 20.2-4l113.4-40.2s4.8-2 7.8-2c8.8 0 16 7 16 16 0 2-1 5.4-1 5.4l-32.8 116.6zM637 175c-7.2-2-16.4-4.2-26.4-6.4-21-4.4-47.8-9-68-9-192.4 0-342 153.6-342 338.2 0 13.2 1.4 30 3 42.8 1.2 8.6 2.6 17.2 4.6 25.6 2 9 4.4 18 7 26.8l-16-14.2c-65.6-57.2-103.2-138.8-103.2-223.8 0-58.6 17-115 49.6-164 4.6-7 7.2-12.4 6.4-16s-23.8-124-23.8-124c-1.2-5.8 1-11.6 5.4-15.4 3-2.4 6.6-3.6 10.2-3.6 2 0 4 0.4 5.8 1.2l112.2 44.2c3.6 1.4 7.4 2.2 11.4 2.2 0 0 4.8 0.4 12.6-2.6 37.8-14.8 79.6-24 121.4-24 93.2 0 180.8 40.2 240.2 110.2 0 0 6.4 8.8 13.8 19.2-7.4-2.6-15.8-5.2-24.2-7.4z" />
<glyph unicode="&#xe913;" glyph-name="credit-card" d="M960 704c0 35.2-28.8 64-64 64h-768c-35.2 0-64-28.8-64-64v-96h896v96zM64 192c0-35.2 28.8-64 64-64h768c35.2 0 64 28.8 64 64v320h-896v-320zM348 288h328c15.4 0 28-12.6 28-28s-12.6-28-28-28h-328c-15.4 0-28 12.6-28 28s12.6 28 28 28zM204 288h24c15.4 0 28-12.6 28-28s-12.6-28-28-28h-24c-15.4 0-28 12.6-28 28s12.6 28 28 28z" />
<glyph unicode="&#xe914;" glyph-name="microphone" d="M512 288c70.4 0 128 57.6 128 128v320c0 70.4-57.6 128-128 128s-128-57.6-128-128v-320c0-70.4 57.6-128 128-128zM704 576c-15.4 0-28-12.6-28-28v-138c0-90.4-73.6-164-164-164s-164 73.6-164 164v138c0 15.4-12.6 28-28 28s-28-12.6-28-28v-138c0-111.8 83.8-204.4 192-218.2v-103.8h-72c-15.4 0-28-12.6-28-28s12.6-28 28-28h200c15.4 0 28 12.6 28 28s-12.6 28-28 28h-72v103.8c108.2 13.8 192 106.4 192 218.2v138c0 15.4-12.6 28-28 28z" />
</font>
</defs>
</svg>
